<svg xml:space="preserve" viewBox="33.08 119.14000000000001 1015.1999999999999 421.2" version="1.1" xmlns:xlink="http://www.w3.org/1999/xlink" xmlns="http://www.w3.org/2000/svg" style="max-height: 500px" width="1015.1999999999999" height="421.2">
<desc>Created with Fabric.js 5.2.4</desc>
<defs>
</defs>
<g id="724d0543-969e-4717-81fd-344647190b28" transform="matrix(1 0 0 1 540 540)">
<rect height="1080" width="1080" ry="0" rx="0" y="-540" x="-540" style="stroke: none; stroke-width: 1; stroke-dasharray: none; stroke-linecap: butt; stroke-dashoffset: 0; stroke-linejoin: miter; stroke-miterlimit: 4; fill: rgb(255,255,255); fill-rule: nonzero; opacity: 1; visibility: hidden;"/>
</g>
<g id="69c8d557-d90b-4a4e-bcec-95f7f318d5d6" transform="matrix(1 0 0 1 540 540)">
</g>
<g transform="matrix(5.35 0 0 5.35 539.72 333.19)">
<path stroke-linecap="round" d="M 105.68 70.032 C 105.68 70.032 105.328 69.944 104.647 69.773 C 103.97500000000001 69.589 102.976 69.316 101.674 68.96 C 99.11600000000001 68.33099999999999 95.38900000000001 67.27 90.784 66.48599999999999 C 86.186 65.71099999999998 80.74000000000001 65.43099999999998 75.46600000000001 66.93299999999999 C 75.233 67.03599999999999 75.00000000000001 67.13 74.76700000000001 67.216 C 74.486 67.341 74.20300000000002 67.466 73.918 67.59299999999999 C 73.628 67.69999999999999 73.36 67.86599999999999 73.08600000000001 68.01599999999999 C 72.81500000000001 68.16999999999999 72.531 68.29499999999999 72.275 68.48899999999999 C 71.20700000000001 69.148 70.212 69.99099999999999 69.25500000000001 70.94999999999999 C 67.36200000000001 72.88499999999999 65.67500000000001 75.47399999999999 64.364 78.57199999999999 C 64.20400000000001 78.96399999999998 64.019 79.338 63.873000000000005 79.74499999999999 C 63.746 80.088 63.618 80.43299999999999 63.489000000000004 80.779 C 63.169000000000004 81.771 62.743 82.958 62.617000000000004 83.62599999999999 C 62.417 84.35999999999999 62.2 85.28399999999999 61.99400000000001 86.184 C 61.82900000000001 87.09 61.63100000000001 88.006 61.529 88.932 C 61.05800000000001 92.633 60.984 96.418 61.553000000000004 99.824 L 61.798 101.076 C 61.88 101.494 62.036 101.859 62.128 102.26799999999999 C 62.208 102.68799999999999 62.356 103.05299999999998 62.498 103.42299999999999 C 62.641 103.79299999999999 62.745 104.204 62.945 104.52699999999999 C 63.558 106.02499999999999 64.406 107.21399999999998 65.627 108.50599999999999 C 67.97399999999999 111.00499999999998 71.798 112.939 76.395 113.74699999999999 C 80.982 114.58099999999999 86.148 114.37299999999999 91.225 113.33199999999998 L 91.701 113.23099999999998 L 91.94 113.17999999999998 L 92.059 113.15499999999997 C 91.833 113.23299999999998 92.067 113.15699999999997 92.048 113.16599999999997 L 93.034 112.89099999999996 L 95.00800000000001 112.33499999999997 L 96.97300000000001 111.73699999999997 L 97.95800000000001 111.43799999999996 L 98.86100000000002 111.07799999999996 C 101.24500000000002 110.06399999999996 103.67600000000002 109.13599999999997 106.01600000000002 107.73999999999997 C 110.77500000000002 105.23599999999996 115.21300000000002 101.98799999999997 119.45100000000002 98.47299999999997 C 123.68900000000002 94.93699999999997 127.64600000000002 90.97299999999997 131.63400000000001 86.98599999999998 C 139.567 78.96299999999998 147.64200000000002 70.52899999999997 157.716 63.99999999999997 C 158.98600000000002 63.19899999999997 160.25300000000001 62.39899999999997 161.517 61.60099999999997 C 162.798 60.82099999999997 164.168 60.14799999999997 165.49099999999999 59.42099999999997 C 168.105 57.91099999999997 170.97099999999998 56.79599999999997 173.75 55.56199999999997 L 174.274 55.33599999999997 L 174.405 55.27899999999997 C 174.502 55.24299999999997 174.373 55.27899999999997 174.656 55.18399999999997 L 174.894 55.093999999999966 L 175.847 54.73599999999997 C 176.418 54.50799999999997 177.27800000000002 54.230999999999966 178.037 53.97699999999997 C 179.58700000000002 53.46699999999997 181.036 53.05699999999997 182.588 52.675999999999966 C 185.65699999999998 51.93399999999997 188.858 51.377999999999965 192.2 51.24899999999997 C 195.53099999999998 51.12099999999997 199.02599999999998 51.30599999999997 202.503 52.154999999999966 C 205.969 52.98599999999997 209.44199999999998 54.36399999999997 212.488 56.35799999999997 L 213.061 56.72699999999997 L 213.346 56.91299999999997 L 213.488 57.00599999999997 C 214.536 57.78299999999997 213.832 57.263999999999974 214.09 57.45699999999997 L 214.829 58.05199999999997 L 216.329 59.26999999999997 C 217.07500000000002 59.97099999999997 217.805 60.68999999999997 218.51600000000002 61.423999999999964 C 218.86700000000002 61.788999999999966 219.23000000000002 62.164999999999964 219.556 62.52899999999996 L 220.347 63.55599999999996 C 220.86 64.24899999999997 221.37 64.94099999999996 221.88 65.62999999999997 C 222.31 66.35199999999996 222.738 67.07199999999996 223.166 67.78999999999996 L 223.784 68.87599999999996 C 223.975 69.24099999999996 224.131 69.61599999999996 224.304 69.98499999999996 C 224.63400000000001 70.72799999999995 224.963 71.46899999999995 225.291 72.20699999999995 C 226.424 75.19599999999996 227.222 78.21499999999995 227.605 81.20299999999995 L 227.75199999999998 82.32099999999994 L 227.82299999999998 82.87799999999994 L 227.85799999999998 83.15599999999995 L 227.87499999999997 83.29499999999994 C 227.96299999999997 84.15899999999995 227.90199999999996 83.59699999999995 227.92199999999997 83.81799999999994 C 227.94199999999998 84.40199999999994 227.96199999999996 84.98299999999995 227.98199999999997 85.56199999999994 L 228.01199999999997 86.42899999999995 C 228.01299999999998 86.58699999999995 228.02199999999996 86.68599999999995 228.01599999999996 86.89199999999994 L 227.99799999999996 87.49399999999994 C 227.96299999999997 88.29299999999995 227.92899999999997 89.08899999999994 227.89399999999995 89.88199999999995 L 227.81999999999994 91.05599999999995 L 227.67399999999995 92.11299999999996 C 227.57199999999995 92.81299999999996 227.46999999999994 93.50999999999996 227.36899999999994 94.20499999999996 C 227.13599999999994 95.58499999999995 226.77999999999994 96.93499999999996 226.45499999999996 98.26499999999996 C 226.03799999999995 99.57799999999996 225.60799999999995 100.86999999999996 225.13899999999995 102.12899999999996 C 224.58599999999996 103.36799999999997 224.09799999999996 104.60499999999996 223.47999999999996 105.77799999999996 C 221.02899999999997 110.47099999999996 217.71399999999997 114.53199999999997 213.81899999999996 117.53499999999997 C 209.95499999999996 120.57499999999997 205.54299999999995 122.47799999999997 201.34799999999996 123.34799999999997 C 200.29399999999995 123.50499999999997 199.25599999999994 123.65899999999998 198.23599999999996 123.81099999999996 C 197.21899999999997 123.89099999999996 196.21899999999997 123.89299999999996 195.24699999999996 123.91199999999996 L 194.52299999999997 123.91699999999996 L 193.88199999999998 123.92399999999996 L 193.58599999999998 123.88799999999996 C 193.19199999999998 123.83999999999996 192.802 123.79099999999997 192.415 123.74399999999996 C 192.029 123.69699999999996 191.646 123.64899999999996 191.267 123.60299999999995 C 190.874 123.54899999999995 190.554 123.53099999999995 190.069 123.42899999999995 C 189.171 123.25799999999994 188.29999999999998 123.06999999999995 187.45899999999997 122.88799999999995 C 187.04599999999996 122.78899999999994 186.60799999999998 122.71699999999994 186.23499999999999 122.59599999999995 C 185.86299999999997 122.47499999999995 185.49599999999998 122.35599999999995 185.13199999999998 122.23899999999995 C 184.414 121.99799999999995 183.71299999999997 121.76199999999994 183.02799999999996 121.53199999999995 C 182.35599999999997 121.28199999999995 181.72899999999996 120.98099999999995 181.10899999999995 120.71899999999995 C 180.49299999999994 120.44699999999995 179.89299999999994 120.19399999999995 179.32299999999995 119.92399999999995 C 178.76999999999995 119.62599999999995 178.23399999999995 119.33599999999996 177.71299999999994 119.05499999999995 C 177.19799999999995 118.77499999999995 176.69999999999993 118.50299999999994 176.21799999999993 118.24099999999996 C 175.75799999999992 117.94599999999996 175.31299999999993 117.66099999999996 174.88499999999993 117.38599999999995 C 173.16799999999992 116.30899999999995 171.80199999999994 115.29599999999995 170.70899999999995 114.46099999999996 C 168.55699999999996 112.74799999999996 167.49399999999994 111.76399999999995 167.49399999999994 111.76399999999995 C 167.11699999999993 111.41499999999995 167.09499999999994 110.82599999999995 167.44299999999996 110.44999999999996 C 167.69299999999996 110.17899999999996 168.06799999999996 110.09099999999997 168.39799999999997 110.19199999999996 L 168.41099999999997 110.19599999999997 C 168.41099999999997 110.19599999999997 169.76299999999998 110.61099999999998 172.29899999999998 111.38799999999996 C 174.80199999999996 112.13499999999996 178.528 113.12599999999996 183.08799999999997 113.65999999999997 C 183.65799999999996 113.71699999999997 184.23599999999996 113.80999999999997 184.82999999999996 113.84299999999998 C 185.41899999999995 113.86199999999998 186.02299999999997 113.88099999999997 186.64199999999997 113.90099999999998 C 186.94699999999997 113.91399999999999 187.25499999999997 113.92699999999998 187.56699999999998 113.93999999999998 C 187.878 113.95299999999999 188.14799999999997 113.90399999999998 188.44099999999997 113.89199999999998 C 189.01699999999997 113.85099999999998 189.59399999999997 113.80799999999998 190.17399999999998 113.78599999999999 C 190.42499999999998 113.79299999999999 190.85899999999998 113.71799999999999 191.22299999999998 113.67499999999998 C 191.60199999999998 113.62499999999999 191.98399999999998 113.57499999999999 192.36999999999998 113.52499999999998 C 192.75599999999997 113.47499999999998 193.146 113.42399999999998 193.539 113.37299999999998 L 193.83499999999998 113.33499999999998 C 193.92399999999998 113.33099999999997 193.33499999999998 113.34299999999998 193.611 113.32999999999998 L 193.66899999999998 113.31299999999999 L 193.785 113.27799999999999 L 194.25 113.142 C 194.867 112.952 195.5 112.823 196.116 112.621 C 196.709 112.37599999999999 197.312 112.127 197.924 111.875 C 200.29500000000002 110.754 202.461 109.118 204.312 106.988 C 206.14200000000002 104.844 207.667 102.203 208.66400000000002 99.18299999999999 C 208.93200000000002 98.44 209.09500000000003 97.636 209.334 96.871 C 209.495 96.071 209.635 95.258 209.78300000000002 94.44999999999999 C 209.829 93.61399999999999 209.989 92.79899999999999 210.01700000000002 91.957 C 210.026 91.538 210.03500000000003 91.116 210.04300000000003 90.692 L 210.06400000000002 90.05999999999999 L 210.01700000000002 89.52999999999999 C 209.98700000000002 89.18099999999998 209.96500000000003 88.83399999999999 209.95100000000002 88.48699999999998 L 209.943 88.22699999999998 C 209.943 88.14499999999998 209.91000000000003 87.95799999999997 209.895 87.82899999999998 L 209.792 86.96799999999998 C 209.723 86.39199999999998 209.654 85.81499999999997 209.585 85.23499999999997 C 209.598 85.38399999999997 209.537 84.74899999999997 209.61100000000002 85.54099999999997 L 209.592 85.46399999999997 L 209.555 85.30999999999997 L 209.481 85.00099999999998 L 209.339 84.38199999999998 C 209.198 83.54199999999997 208.877 82.75999999999998 208.637 81.95399999999998 C 208.536 81.53999999999998 208.325 81.18199999999997 208.171 80.79599999999998 C 207.995 80.42299999999997 207.876 80.01699999999998 207.691 79.65299999999998 L 207.119 78.58199999999998 C 207.023 78.40499999999997 206.943 78.21399999999998 206.838 78.04499999999997 L 206.504 77.55999999999997 L 205.874 76.56499999999997 C 205.623 76.27899999999997 205.38 75.98999999999997 205.143 75.69399999999997 C 205.024 75.54699999999997 204.909 75.39699999999998 204.798 75.24099999999997 L 204.538 75.00099999999998 C 204.376 74.83899999999997 204.232 74.66199999999998 204.10000000000002 74.46199999999997 C 203.68500000000003 74.11299999999997 203.13500000000002 73.69199999999998 202.65600000000003 73.30999999999997 L 201.91200000000003 72.72099999999998 C 202.10600000000002 72.86699999999998 201.34400000000002 72.29199999999997 202.32500000000005 73.02799999999998 L 202.26600000000005 72.99399999999997 L 202.14900000000006 72.92499999999997 L 201.91700000000006 72.78499999999997 C 199.53400000000005 71.21299999999997 196.46400000000006 70.30599999999997 192.54400000000007 70.19599999999997 C 190.60500000000008 70.16499999999996 188.50000000000006 70.28899999999997 186.32000000000008 70.63799999999996 C 185.24600000000007 70.80299999999997 184.08100000000007 71.04099999999997 183.03400000000008 71.27299999999997 C 182.49800000000008 71.40099999999997 182.05300000000008 71.47799999999997 181.34100000000007 71.68699999999997 L 180.36000000000007 71.95699999999997 L 180.11400000000006 72.02399999999996 C 180.31600000000006 71.95399999999997 180.10900000000007 72.02499999999996 180.12700000000007 72.01899999999996 L 180.02100000000007 72.05499999999996 L 179.59600000000006 72.19799999999996 C 177.33300000000006 72.98999999999997 174.99600000000007 73.61099999999996 172.73900000000006 74.67199999999997 C 171.60400000000007 75.17199999999997 170.44200000000006 75.59799999999997 169.30800000000005 76.15599999999996 C 168.17400000000006 76.72599999999996 167.03700000000006 77.29699999999997 165.89700000000005 77.86799999999997 C 164.74100000000004 78.40099999999997 163.62900000000005 79.08899999999997 162.47900000000004 79.70799999999997 C 161.33600000000004 80.34899999999998 160.18200000000004 80.94999999999997 159.03400000000005 81.62799999999997 C 156.74800000000005 83.01099999999997 154.40900000000005 84.30999999999997 152.08900000000006 85.78999999999998 C 149.74200000000005 87.18499999999997 147.38800000000006 88.67399999999998 145.03200000000007 90.17699999999998 L 137.88600000000008 94.72199999999998 C 128.25600000000009 100.80999999999997 118.72200000000008 107.30899999999998 108.59200000000008 112.59399999999998 L 106.69600000000008 113.58299999999998 L 105.75300000000009 114.08699999999999 L 104.76100000000008 114.54199999999999 C 103.44000000000008 115.15399999999998 102.10900000000008 115.73599999999999 100.79700000000008 116.36199999999998 L 99.81500000000008 116.83099999999997 L 98.85500000000009 117.20299999999997 L 96.93900000000009 117.94499999999998 L 95.04300000000009 118.72599999999998 L 94.0980000000001 119.11799999999998 L 92.9610000000001 119.51299999999998 C 87.5820000000001 121.39299999999997 82.0220000000001 122.92499999999998 76.03700000000009 123.40999999999998 C 73.0500000000001 123.64299999999999 69.9400000000001 123.54099999999998 66.79900000000009 122.93099999999998 C 65.23300000000009 122.61599999999999 63.65300000000009 122.20599999999999 62.10800000000009 121.61299999999999 C 61.35800000000009 121.37599999999999 60.49600000000009 120.95799999999998 59.652000000000086 120.53599999999999 C 59.24000000000009 120.332 58.790000000000084 120.09999999999998 58.42000000000009 119.89599999999999 L 57.589000000000084 119.41499999999999 L 56.76000000000008 118.93499999999999 L 56.656000000000084 118.87499999999999 C 56.68500000000009 118.90699999999998 56.06000000000009 118.42199999999998 56.262000000000086 118.57899999999998 L 56.00400000000008 118.38199999999998 L 55.49000000000008 117.98299999999998 C 54.81400000000008 117.43999999999997 54.10200000000008 116.91999999999997 53.49100000000008 116.30699999999997 C 52.88400000000008 115.68999999999997 52.28300000000008 115.06099999999998 51.69100000000008 114.42399999999998 C 51.13200000000008 113.76899999999998 50.62900000000008 113.07799999999997 50.12700000000008 112.38299999999998 C 48.205000000000084 109.57599999999998 46.830000000000084 106.52399999999999 46.02300000000008 103.50799999999998 C 45.80000000000008 102.75299999999999 45.65100000000008 102.01099999999998 45.49600000000008 101.25699999999998 L 45.27700000000008 100.13199999999998 L 45.13300000000008 99.02299999999998 C 44.91900000000008 97.53699999999998 44.81700000000008 96.08899999999998 44.78600000000008 94.64799999999998 C 44.76800000000008 91.79099999999998 44.97400000000008 89.00999999999998 45.48600000000008 86.37399999999998 C 45.70000000000008 85.04399999999998 46.022000000000084 83.75699999999998 46.323000000000086 82.47599999999998 C 46.67800000000008 81.20799999999998 46.98100000000009 79.97499999999998 47.48400000000009 78.62399999999998 C 47.967000000000084 77.17899999999999 48.36200000000009 76.34599999999998 48.780000000000086 75.31299999999999 L 48.899000000000086 75.01999999999998 L 48.95000000000009 74.91099999999999 L 49.052000000000085 74.692 L 49.25500000000009 74.25599999999999 L 49.66100000000009 73.38799999999999 C 49.92800000000009 72.81099999999999 50.24600000000009 72.24799999999999 50.53600000000009 71.684 C 52.99200000000009 67.234 56.204000000000086 63.157 60.265000000000086 60.181999999999995 C 62.26700000000009 58.687999999999995 64.42400000000009 57.428999999999995 66.68500000000009 56.587999999999994 C 67.23200000000008 56.34499999999999 67.81000000000009 56.17999999999999 68.37000000000009 55.99699999999999 C 68.93400000000008 55.818999999999996 69.4870000000001 55.63399999999999 70.0560000000001 55.517999999999994 C 70.62000000000009 55.392999999999994 71.1790000000001 55.267999999999994 71.7340000000001 55.144999999999996 C 72.3530000000001 55.062999999999995 72.96800000000009 54.983 73.5770000000001 54.903 C 73.8600000000001 54.873999999999995 74.2280000000001 54.818999999999996 74.4350000000001 54.818999999999996 L 75.0740000000001 54.809 C 75.5880000000001 54.797999999999995 76.0980000000001 54.787 76.6040000000001 54.775999999999996 C 77.5980000000001 54.842 78.5690000000001 54.901999999999994 79.5170000000001 54.988 C 79.98900000000009 55.033 80.45600000000009 55.077 80.9190000000001 55.121 C 81.37300000000009 55.197 81.81400000000009 55.298 82.2530000000001 55.386 C 83.1240000000001 55.571000000000005 83.9780000000001 55.752 84.8150000000001 55.929 C 86.45100000000009 56.358000000000004 87.9400000000001 56.940000000000005 89.37600000000009 57.408 C 90.7550000000001 57.991 92.0380000000001 58.603 93.25100000000009 59.153 C 97.9750000000001 61.591 101.18000000000009 64.045 103.36100000000009 65.73 C 105.45200000000008 67.452 106.5230000000001 68.428 106.5230000000001 68.428 L 106.5330000000001 68.437 C 106.9140000000001 68.785 106.9420000000001 69.37599999999999 106.59400000000011 69.758 C 106.359 70.018 106.002 70.112 105.68 70.032 z" transform="translate(-136.4, -87.57)" style="stroke: none; stroke-width: 1; stroke-dasharray: none; stroke-linecap: butt; stroke-dashoffset: 0; stroke-linejoin: miter; stroke-miterlimit: 4; fill: rgb(34,34,33); fill-rule: nonzero; opacity: 1;"/>
</g>
<g transform="matrix(5.35 0 0 5.35 546.32 347.29)">
<path stroke-linecap="round" d="M 164.951 108.947 C 164.951 108.947 164.652 108.97800000000001 164.106 109 C 163.557 109.037 162.777 109.04 161.751 108.952 C 160.728 108.871 159.528 108.703 158.16 108.419 C 157.477 108.273 156.776 108.081 156.017 107.886 C 155.28799999999998 107.65599999999999 154.5 107.42699999999999 153.71099999999998 107.146 C 152.123 106.586 150.475 105.876 148.778 105.072 C 147.089 104.256 145.385 103.322 143.69299999999998 102.318 C 141.99999999999997 101.309 140.33399999999997 100.24 138.68699999999998 99.131 C 136.99399999999997 97.985 135.29799999999997 96.767 133.66099999999997 95.529 C 130.37299999999996 93.04899999999999 127.20899999999997 90.39399999999999 124.36199999999997 87.749 C 122.94199999999996 86.41799999999999 121.58299999999997 85.12299999999999 120.34499999999997 83.806 C 119.08899999999997 82.521 117.92799999999997 81.26899999999999 116.88299999999997 80.062 C 115.83499999999997 78.86 114.88399999999997 77.747 114.06799999999997 76.701 C 113.25199999999997 75.65599999999999 112.54399999999997 74.737 111.97599999999997 73.94699999999999 C 110.83299999999997 72.377 110.24399999999997 71.34599999999999 110.24399999999997 71.34599999999999 C 110.24399999999997 71.34599999999999 111.41099999999997 71.42599999999999 113.33999999999997 71.79799999999999 C 114.30999999999997 71.97699999999999 115.47199999999998 72.22999999999999 116.75699999999998 72.597 C 118.04699999999998 72.957 119.49699999999997 73.39 121.02099999999997 73.946 C 122.54299999999998 74.504 124.18099999999997 75.13799999999999 125.85199999999998 75.89699999999999 C 127.53099999999998 76.63999999999999 129.26999999999998 77.484 131.01099999999997 78.42699999999999 C 134.49999999999997 80.312 138.06299999999996 82.53299999999999 141.45099999999996 84.99799999999999 C 143.16199999999998 86.22099999999999 144.79299999999998 87.49 146.38199999999998 88.78299999999999 C 148.015 90.11499999999998 149.54099999999997 91.49699999999999 150.93999999999997 92.856 C 152.33999999999997 94.22 153.62799999999996 95.57199999999999 154.81599999999997 96.869 C 155.40299999999996 97.525 155.97499999999997 98.164 156.527 98.781 C 157.071 99.408 157.59599999999998 100.015 158.101 100.59700000000001 C 159.105 101.793 160.026 102.88900000000001 160.842 103.861 C 161.673 104.876 162.39700000000002 105.76 162.99300000000002 106.489 C 163.29700000000003 106.86800000000001 163.568 107.20700000000001 163.80400000000003 107.50200000000001 C 164.05700000000002 107.79700000000001 164.26900000000003 108.05600000000001 164.43800000000002 108.272 C 164.778 108.7 164.951 108.947 164.951 108.947 z" transform="translate(-137.6, -90.19)" style="stroke: none; stroke-width: 1; stroke-dasharray: none; stroke-linecap: butt; stroke-dashoffset: 0; stroke-linejoin: miter; stroke-miterlimit: 4; fill: rgb(34,34,33); fill-rule: nonzero; opacity: 1;"/>
</g>
<g transform="matrix(5.35 0 0 5.35 286.04 421.04)">
<path stroke-linecap="round" d="M 65.248 98.314 C 65.248 98.314 65.382 98.481 65.632 98.79499999999999 C 65.88300000000001 99.09899999999999 66.218 99.606 66.699 100.14099999999999 C 66.93599999999999 100.40199999999999 67.199 100.69 67.485 101.005 C 67.779 101.304 68.131 101.607 68.478 101.935 C 69.193 102.57600000000001 70.06099999999999 103.193 71.03399999999999 103.748 C 72.03299999999999 104.266 73.12299999999999 104.75200000000001 74.35999999999999 105.033 C 75.57099999999998 105.364 76.90899999999999 105.517 78.30999999999999 105.56400000000001 C 79.707 105.631 81.18699999999998 105.515 82.692 105.35900000000001 C 84.19699999999999 105.19600000000001 85.744 104.90700000000001 87.28599999999999 104.58900000000001 C 88.83399999999999 104.26500000000001 90.37999999999998 103.87300000000002 91.91099999999999 103.46500000000002 C 93.43599999999999 103.04000000000002 94.948 102.61900000000001 96.41099999999999 102.17300000000002 C 99.36899999999999 101.27300000000001 102.12999999999998 100.43200000000002 104.49699999999999 99.71200000000002 C 106.89399999999999 98.99500000000002 108.93499999999999 98.44500000000002 110.38599999999998 98.11200000000002 C 111.83199999999998 97.76500000000003 112.68499999999999 97.63700000000003 112.68499999999999 97.63700000000003 C 112.68499999999999 97.63700000000003 112.00899999999999 98.16900000000003 110.79899999999999 99.02700000000003 C 109.59299999999999 99.89200000000002 107.851 101.08700000000003 105.67699999999999 102.38900000000002 C 103.50399999999999 103.69400000000003 100.88999999999999 105.10000000000002 97.954 106.37500000000003 C 96.488 107.01500000000003 94.94 107.62400000000002 93.327 108.15200000000003 C 91.72 108.70100000000004 90.03699999999999 109.14000000000003 88.33 109.52500000000003 C 86.606 109.85200000000003 84.867 110.15800000000003 83.098 110.23000000000003 C 81.337 110.32200000000003 79.574 110.29200000000003 77.865 110.00300000000003 C 76.161 109.74700000000003 74.515 109.28200000000002 73.053 108.58400000000003 C 71.575 107.93600000000004 70.32 107.00900000000003 69.292 106.08000000000003 C 68.289 105.10600000000002 67.516 104.10500000000003 66.971 103.15500000000003 C 66.71600000000001 102.66600000000003 66.44800000000001 102.24400000000003 66.271 101.80300000000003 C 66.104 101.36400000000003 65.95100000000001 100.96100000000003 65.812 100.59800000000003 C 65.53099999999999 99.89000000000003 65.485 99.30400000000003 65.372 98.91800000000002 C 65.291 98.524 65.248 98.314 65.248 98.314 z" transform="translate(-88.97, -103.96)" style="stroke: none; stroke-width: 1; stroke-dasharray: none; stroke-linecap: butt; stroke-dashoffset: 0; stroke-linejoin: miter; stroke-miterlimit: 4; fill: rgb(34,34,33); fill-rule: nonzero; opacity: 1;"/>
</g>
<g transform="matrix(5.35 0 0 5.35 796.93 320.55)">
<path stroke-linecap="round" d="M 163.461 87.47 C 163.461 87.47 163.60600000000002 87.301 163.87800000000001 86.985 C 164.16000000000003 86.67999999999999 164.543 86.205 165.11 85.67 C 165.663 85.114 166.34900000000002 84.461 167.181 83.763 C 168.012 83.06500000000001 168.971 82.293 170.072 81.52600000000001 C 171.177 80.76700000000001 172.403 79.974 173.761 79.23400000000001 C 175.109 78.474 176.597 77.781 178.173 77.13000000000001 C 179.763 76.51 181.447 75.93400000000001 183.229 75.528 C 185.01100000000002 75.11800000000001 186.876 74.85000000000001 188.793 74.78500000000001 C 190.711 74.76700000000001 192.683 74.94100000000002 194.586 75.47900000000001 C 196.491 75.98100000000001 198.32100000000003 76.89200000000001 199.81300000000002 78.10900000000001 C 201.3 79.32100000000001 202.51800000000003 80.75500000000001 203.29800000000003 82.25900000000001 C 203.73100000000002 82.99000000000001 203.99900000000002 83.76000000000002 204.31000000000003 84.47000000000001 C 204.52100000000004 85.21400000000001 204.76700000000002 85.915 204.91100000000003 86.60200000000002 C 205.02600000000004 87.29500000000002 205.16500000000002 87.94700000000002 205.23600000000002 88.57100000000001 C 205.27400000000003 89.19400000000002 205.31000000000003 89.78600000000002 205.34400000000002 90.34200000000001 C 205.38400000000001 91.44500000000001 205.29800000000003 92.40300000000002 205.25300000000001 93.17900000000002 C 205.05800000000002 94.73800000000001 204.88600000000002 95.60300000000002 204.88600000000002 95.60300000000002 C 204.88600000000002 95.60300000000002 204.616 94.73700000000002 204.25300000000001 93.26600000000002 C 204.02800000000002 92.55000000000003 203.756 91.67900000000002 203.443 90.68100000000003 C 203.263 90.20200000000003 203.071 89.69300000000003 202.869 89.15600000000002 C 202.638 88.64400000000002 202.396 88.10700000000001 202.142 87.54600000000002 C 201.876 87.00000000000001 201.549 86.46800000000002 201.248 85.90800000000002 C 200.86599999999999 85.40300000000002 200.56199999999998 84.82500000000002 200.12199999999999 84.34600000000002 C 199.33599999999998 83.30700000000002 198.307 82.46400000000001 197.19699999999997 81.74200000000002 C 196.902 81.58300000000001 196.63299999999998 81.38800000000002 196.32299999999998 81.24800000000002 C 196.016 81.10600000000002 195.70699999999997 80.96300000000002 195.397 80.82000000000002 C 194.737 80.60300000000002 194.082 80.37000000000002 193.373 80.22300000000003 C 191.96599999999998 79.92700000000002 190.457 79.79200000000003 188.909 79.82900000000002 C 187.357 79.85600000000002 185.777 80.06600000000002 184.212 80.31600000000002 C 182.647 80.59100000000002 181.105 80.96700000000001 179.605 81.35600000000002 C 178.117 81.78900000000003 176.66199999999998 82.20800000000003 175.301 82.69100000000002 C 173.92999999999998 83.14700000000002 172.64399999999998 83.63600000000001 171.44899999999998 84.09000000000002 C 170.261 84.55800000000002 169.16099999999997 84.99000000000002 168.19099999999997 85.39700000000002 C 167.22299999999998 85.81800000000003 166.378 86.18500000000002 165.68399999999997 86.48600000000002 C 164.97999999999996 86.80000000000001 164.42699999999996 87.04800000000002 164.04899999999998 87.21600000000002 C 163.666 87.382 163.461 87.47 163.461 87.47 z" transform="translate(-184.41, -85.19)" style="stroke: none; stroke-width: 1; stroke-dasharray: none; stroke-linecap: butt; stroke-dashoffset: 0; stroke-linejoin: miter; stroke-miterlimit: 4; fill: rgb(34,34,33); fill-rule: nonzero; opacity: 1;"/>
</g>
</svg>